<mxfile host="65bd71144e">
    <diagram id="CY6HW25v7ooDOTgDjAe3" name="Page-1">
        <mxGraphModel dx="1759" dy="1767" grid="1" gridSize="10" guides="1" tooltips="1" connect="1" arrows="1" fold="1" page="1" pageScale="1" pageWidth="850" pageHeight="1100" math="0" shadow="0">
            <root>
                <mxCell id="0"/>
                <mxCell id="1" parent="0"/>
                <mxCell id="5" value="&lt;span style=&quot;font-size: 18px;&quot;&gt;TRANSACTION DATA STORAGE&lt;/span&gt;" style="rounded=0;whiteSpace=wrap;html=1;" parent="1" vertex="1">
                    <mxGeometry x="670" y="340" width="370" height="170" as="geometry"/>
                </mxCell>
                <mxCell id="8" value="&lt;font style=&quot;font-size: 36px;&quot;&gt;CREATE AN ORDER&lt;/font&gt;" style="rounded=1;whiteSpace=wrap;html=1;" parent="1" vertex="1">
                    <mxGeometry x="-190" y="340" width="360" height="180" as="geometry"/>
                </mxCell>
                <mxCell id="11" value="" style="endArrow=none;html=1;exitX=0;exitY=0.25;exitDx=0;exitDy=0;entryX=1;entryY=0.25;entryDx=0;entryDy=0;" parent="1" source="8" target="8" edge="1">
                    <mxGeometry width="50" height="50" relative="1" as="geometry">
                        <mxPoint x="390" y="570" as="sourcePoint"/>
                        <mxPoint x="440" y="520" as="targetPoint"/>
                    </mxGeometry>
                </mxCell>
                <mxCell id="12" value="" style="endArrow=none;html=1;entryX=0.114;entryY=0.996;entryDx=0;entryDy=0;entryPerimeter=0;exitX=0.112;exitY=0.005;exitDx=0;exitDy=0;exitPerimeter=0;" parent="1" source="5" target="5" edge="1">
                    <mxGeometry width="50" height="50" relative="1" as="geometry">
                        <mxPoint x="570" y="230" as="sourcePoint"/>
                        <mxPoint x="320" y="30" as="targetPoint"/>
                    </mxGeometry>
                </mxCell>
                <mxCell id="18" value="&lt;font style=&quot;font-size: 24px;&quot;&gt;Notify user for current status of transaction data storage&lt;/font&gt;" style="rounded=1;whiteSpace=wrap;html=1;" parent="1" vertex="1">
                    <mxGeometry x="610" y="-120" width="450" height="180" as="geometry"/>
                </mxCell>
                <mxCell id="24" value="" style="endArrow=none;html=1;exitX=0;exitY=0.25;exitDx=0;exitDy=0;entryX=1;entryY=0.25;entryDx=0;entryDy=0;" parent="1" source="18" target="18" edge="1">
                    <mxGeometry width="50" height="50" relative="1" as="geometry">
                        <mxPoint x="50" y="320" as="sourcePoint"/>
                        <mxPoint x="290" y="320" as="targetPoint"/>
                    </mxGeometry>
                </mxCell>
                <mxCell id="30" style="edgeStyle=none;html=1;entryX=0;entryY=0.5;entryDx=0;entryDy=0;fontSize=36;" parent="1" source="25" target="5" edge="1">
                    <mxGeometry relative="1" as="geometry"/>
                </mxCell>
                <mxCell id="25" value="successful order" style="text;html=1;strokeColor=none;fillColor=none;align=center;verticalAlign=middle;whiteSpace=wrap;rounded=0;fontSize=36;" parent="1" vertex="1">
                    <mxGeometry x="380" y="410" width="60" height="30" as="geometry"/>
                </mxCell>
                <mxCell id="31" value="" style="endArrow=none;html=1;fontSize=36;exitX=1;exitY=0.5;exitDx=0;exitDy=0;entryX=0;entryY=0.5;entryDx=0;entryDy=0;" parent="1" source="8" target="25" edge="1">
                    <mxGeometry width="50" height="50" relative="1" as="geometry">
                        <mxPoint x="470" y="320" as="sourcePoint"/>
                        <mxPoint x="520" y="270" as="targetPoint"/>
                    </mxGeometry>
                </mxCell>
                <mxCell id="38" style="edgeStyle=none;html=1;entryX=0.248;entryY=1.01;entryDx=0;entryDy=0;fontSize=36;exitX=0.649;exitY=0.062;exitDx=0;exitDy=0;exitPerimeter=0;entryPerimeter=0;" parent="1" source="36" target="57" edge="1">
                    <mxGeometry relative="1" as="geometry">
                        <mxPoint x="-115" y="40" as="targetPoint"/>
                    </mxGeometry>
                </mxCell>
                <mxCell id="36" value="&lt;font style=&quot;font-size: 30px;&quot;&gt;order creation feedback&lt;/font&gt;" style="text;html=1;strokeColor=none;fillColor=none;align=center;verticalAlign=middle;whiteSpace=wrap;rounded=0;fontSize=36;" parent="1" vertex="1">
                    <mxGeometry x="-370" y="160" width="390" height="30" as="geometry"/>
                </mxCell>
                <mxCell id="37" value="" style="endArrow=none;html=1;fontSize=36;exitX=0.208;exitY=-0.003;exitDx=0;exitDy=0;entryX=0.654;entryY=1.05;entryDx=0;entryDy=0;exitPerimeter=0;entryPerimeter=0;" parent="1" source="8" target="36" edge="1">
                    <mxGeometry width="50" height="50" relative="1" as="geometry">
                        <mxPoint x="280" y="125" as="sourcePoint"/>
                        <mxPoint x="520" y="60" as="targetPoint"/>
                    </mxGeometry>
                </mxCell>
                <mxCell id="42" style="edgeStyle=none;html=1;fontSize=18;entryX=0.824;entryY=-0.022;entryDx=0;entryDy=0;entryPerimeter=0;exitX=0.316;exitY=0.971;exitDx=0;exitDy=0;exitPerimeter=0;" parent="1" source="40" target="8" edge="1">
                    <mxGeometry relative="1" as="geometry">
                        <mxPoint x="215" y="210" as="targetPoint"/>
                    </mxGeometry>
                </mxCell>
                <mxCell id="40" value="&lt;font style=&quot;font-size: 30px;&quot;&gt;order information&amp;nbsp;&lt;/font&gt;" style="text;html=1;strokeColor=none;fillColor=none;align=center;verticalAlign=middle;whiteSpace=wrap;rounded=0;fontSize=36;" parent="1" vertex="1">
                    <mxGeometry x="20" y="160" width="270" height="30" as="geometry"/>
                </mxCell>
                <mxCell id="43" value="" style="endArrow=none;html=1;fontSize=18;exitX=0.843;exitY=1.01;exitDx=0;exitDy=0;exitPerimeter=0;entryX=0.33;entryY=-0.016;entryDx=0;entryDy=0;entryPerimeter=0;" parent="1" source="57" target="40" edge="1">
                    <mxGeometry width="50" height="50" relative="1" as="geometry">
                        <mxPoint x="105.77999999999975" y="44.80000000000018" as="sourcePoint"/>
                        <mxPoint x="200" y="70" as="targetPoint"/>
                    </mxGeometry>
                </mxCell>
                <mxCell id="46" style="edgeStyle=none;html=1;entryX=0.407;entryY=1.013;entryDx=0;entryDy=0;entryPerimeter=0;fontSize=18;" parent="1" source="45" target="18" edge="1">
                    <mxGeometry relative="1" as="geometry"/>
                </mxCell>
                <mxCell id="45" value="raw storage status" style="text;html=1;strokeColor=none;fillColor=none;align=center;verticalAlign=middle;whiteSpace=wrap;rounded=0;fontSize=36;" parent="1" vertex="1">
                    <mxGeometry x="650" y="190" width="280" height="30" as="geometry"/>
                </mxCell>
                <mxCell id="47" value="" style="endArrow=none;html=1;fontSize=18;entryX=0.5;entryY=1;entryDx=0;entryDy=0;exitX=0.346;exitY=-0.021;exitDx=0;exitDy=0;exitPerimeter=0;" parent="1" source="5" target="45" edge="1">
                    <mxGeometry width="50" height="50" relative="1" as="geometry">
                        <mxPoint x="650" y="240" as="sourcePoint"/>
                        <mxPoint x="700" y="190" as="targetPoint"/>
                    </mxGeometry>
                </mxCell>
                <mxCell id="53" style="edgeStyle=none;html=1;entryX=0;entryY=0;entryDx=330;entryDy=100;fontSize=30;entryPerimeter=0;" parent="1" source="49" target="57" edge="1">
                    <mxGeometry relative="1" as="geometry">
                        <mxPoint x="170" y="-10" as="targetPoint"/>
                    </mxGeometry>
                </mxCell>
                <mxCell id="49" value="filtered and formatted storage status&lt;br&gt;" style="text;html=1;strokeColor=none;fillColor=none;align=center;verticalAlign=middle;whiteSpace=wrap;rounded=0;fontSize=36;" parent="1" vertex="1">
                    <mxGeometry x="240" y="-75" width="280" height="30" as="geometry"/>
                </mxCell>
                <mxCell id="54" value="" style="endArrow=none;html=1;fontSize=30;exitX=0.75;exitY=1;exitDx=0;exitDy=0;entryX=0.002;entryY=0.696;entryDx=0;entryDy=0;entryPerimeter=0;" parent="1" source="49" target="18" edge="1">
                    <mxGeometry width="50" height="50" relative="1" as="geometry">
                        <mxPoint x="570" y="-280" as="sourcePoint"/>
                        <mxPoint x="620" y="-330" as="targetPoint"/>
                    </mxGeometry>
                </mxCell>
                <mxCell id="57" value="&lt;font style=&quot;font-size: 48px;&quot;&gt;CUSTOMER&lt;/font&gt;" style="shape=cube;whiteSpace=wrap;html=1;boundedLbl=1;backgroundOutline=1;darkOpacity=0.05;darkOpacity2=0.1;" vertex="1" parent="1">
                    <mxGeometry x="-190" y="-150" width="330" height="180" as="geometry"/>
                </mxCell>
            </root>
        </mxGraphModel>
    </diagram>
</mxfile>